<svg xmlns="http://www.w3.org/2000/svg" xmlns:xlink="http://www.w3.org/1999/xlink" viewBox="0,0,256,256" width="40px" height="40px" fill-rule="nonzero"><g fill="none" fill-rule="nonzero" stroke="none" stroke-width="1" stroke-linecap="butt" stroke-linejoin="miter" stroke-miterlimit="10" stroke-dasharray="" stroke-dashoffset="0" font-family="none" font-weight="none" font-size="none" text-anchor="none" style="mix-blend-mode: normal"><g transform="scale(6.4,6.4)"><path d="M2.5,2.5h35v35h-35z" fill="#007aff"></path><path d="M37,3v34h-34v-34h34M38,2h-36v36h36v-36z" fill="#007aff"></path><path d="M6.5,6.5h27v27h-27z" fill="#ffffff"></path><path d="M33,7v26h-26v-26h26M34,6h-28v28h28v-28z" fill="#007aff"></path><path d="M14.003,22.082v4.583h-2.997v-13.304h4.694c3.352,0 5.028,1.414 5.028,4.24c0,1.336 -0.481,2.417 -1.442,3.243c-0.962,0.825 -2.247,1.238 -3.855,1.238zM14.003,15.662v4.147h1.178c1.596,0 2.394,-0.699 2.394,-2.097c0,-1.367 -0.798,-2.05 -2.394,-2.05z" fill="#007aff"></path><path d="M21.769,26.414v-2.375c0.482,0.291 0.963,0.507 1.442,0.649c0.479,0.143 0.933,0.213 1.359,0.213c0.52,0 0.929,-0.071 1.229,-0.213c0.3,-0.142 0.45,-0.358 0.45,-0.649c0,-0.186 -0.068,-0.34 -0.204,-0.464c-0.136,-0.124 -0.311,-0.232 -0.524,-0.325c-0.214,-0.093 -0.447,-0.176 -0.701,-0.25c-0.254,-0.074 -0.498,-0.158 -0.733,-0.25c-0.377,-0.142 -0.71,-0.295 -0.997,-0.459c-0.288,-0.164 -0.529,-0.354 -0.724,-0.571c-0.195,-0.216 -0.344,-0.467 -0.445,-0.751c-0.103,-0.284 -0.153,-0.622 -0.153,-1.011c0,-0.532 0.116,-0.989 0.348,-1.373c0.232,-0.383 0.542,-0.697 0.928,-0.942c0.387,-0.244 0.829,-0.423 1.327,-0.538c0.498,-0.114 1.016,-0.171 1.554,-0.171c0.42,0 0.847,0.033 1.28,0.097c0.433,0.065 0.859,0.16 1.28,0.283v2.264c-0.371,-0.216 -0.769,-0.379 -1.192,-0.487c-0.423,-0.108 -0.839,-0.162 -1.248,-0.162c-0.192,0 -0.373,0.017 -0.542,0.051c-0.17,0.034 -0.32,0.084 -0.45,0.148c-0.13,0.065 -0.232,0.148 -0.306,0.251c-0.074,0.102 -0.111,0.218 -0.111,0.348c0,0.173 0.056,0.322 0.167,0.445c0.111,0.124 0.256,0.23 0.436,0.32c0.179,0.089 0.379,0.17 0.599,0.241c0.219,0.071 0.437,0.144 0.654,0.218c0.39,0.136 0.742,0.285 1.058,0.445c0.315,0.161 0.586,0.35 0.812,0.566c0.226,0.217 0.398,0.47 0.52,0.761c0.12,0.291 0.181,0.637 0.181,1.039c0,0.563 -0.122,1.043 -0.366,1.443c-0.245,0.398 -0.569,0.724 -0.975,0.974c-0.405,0.251 -0.872,0.433 -1.4,0.548c-0.529,0.114 -1.078,0.171 -1.647,0.171c-1.048,-0.002 -2.016,-0.163 -2.906,-0.484z" fill="#007aff"></path></g></g></svg>
